<?xml version="1.0" encoding="UTF-8"?><svg id="Layer_2" xmlns="http://www.w3.org/2000/svg" viewBox="0 0 18.76 19.23"><defs><style>.cls-1{fill:#fff;}</style></defs><g id="Layer_1-2"><path class="cls-1" d="m8.05,2.7c-2.95,0-5.35,2.4-5.35,5.35,0,.28.22.5.5.5s.5-.22.5-.5c0-2.4,1.95-4.35,4.35-4.35.28,0,.5-.22.5-.5s-.22-.5-.5-.5Z"/><path class="cls-1" d="m18.54,17.95l-4.53-4.53c1.29-1.43,2.08-3.31,2.08-5.38C16.09,3.61,12.48,0,8.05,0S0,3.61,0,8.05s3.61,8.05,8.05,8.05c1.83,0,3.51-.62,4.86-1.65l4.57,4.57c.15.15.34.22.53.22s.38-.07.53-.22c.29-.29.29-.77,0-1.06ZM1.5,8.05c0-3.61,2.94-6.55,6.55-6.55s6.55,2.94,6.55,6.55-2.94,6.55-6.55,6.55S1.5,11.66,1.5,8.05Z"/></g></svg>